# xmcd
# 
# Track frame offsets:
#     150
#     22312
#     43350
#     69107
#     96450
#     118397
#     137325
#     156600
#     176100
# 
# Disc length: 2682
# 
# Revision: 12
# Processed by: cddbd v1.5.2PL0 Copyright (c) Steve Scherf et al.
# Submitted via: fre:ac v1.0.17
# 
DISCID=8a0a7809
DTITLE=The Rippingtons - Kilimanjaro
DYEAR=1989
DGENRE=Jazz
TTITLE0=Morocco
TTITLE1=Northern Lights
TTITLE2=Dream Of The Sirens
TTITLE3=Katrina's Dance
TTITLE4=Kilimanjaro
TTITLE5=Backstabbers
TTITLE6=Love Notes
TTITLE7=Los Cabos!
TTITLE8=Oceansong
EXTD=YEAR: 1989
EXTT0=
EXTT1=
EXTT2=
EXTT3=
EXTT4=
EXTT5=
EXTT6=
EXTT7=
EXTT8=
PLAYORDER=
